PathFileType	4	(X/Y/Z)	c:/Users/goper/Files/vsCode/490R/osim_files/C08/C08_Slow_04.trc
DataRate	CameraRate	NumFrames	NumMarkers	Units                	OrigDataRate	OrigDataStartFrame	OrigNumFrames
250.00	250.00	10	36	mm	250.0	1032	2750
                Frame#	Time	LPSIS			LASIS			LTH1			LTH2			LTH3			LTH4			LLFE			LMFE			LSH1			LSH2			LSH3			LSH4			LLMAL			LMMAL			LCAL			LMTP5			LTOE			LMTP1			RPSIS			RASIS			RTH1			RTH2			RTH3			RTH4			RLFE			RMFE			RSH1			RSH2			RSH3			RSH4			RLMAL			RMMAL			RCAL			RMTP1			RTOE			RMTP5		
		X1	Y1	Z1	X2	Y2	Z2	X3	Y3	Z3	X4	Y4	Z4	X5	Y5	Z5	X6	Y6	Z6	X7	Y7	Z7	X8	Y8	Z8	X9	Y9	Z9	X10	Y10	Z10	X11	Y11	Z11	X12	Y12	Z12	X13	Y13	Z13	X14	Y14	Z14	X15	Y15	Z15	X16	Y16	Z16	X17	Y17	Z17	X18	Y18	Z18	X19	Y19	Z19	X20	Y20	Z20	X21	Y21	Z21	X22	Y22	Z22	X23	Y23	Z23	X24	Y24	Z24	X25	Y25	Z25	X26	Y26	Z26	X27	Y27	Z27	X28	Y28	Z28	X29	Y29	Z29	X30	Y30	Z30	X31	Y31	Z31	X32	Y32	Z32	X33	Y33	Z33	X34	Y34	Z34	X35	Y35	Z35	X36	Y36	Z36

1032	4.12400	645.50934	1052.73926	217.28096	435.94781	1017.98627	301.22824	532.78943	737.55359	362.88864	533.84058	660.35626	341.18631	535.94501	588.88159	333.96106	456.95709	668.32855	326.07861	537.49023	538.94440	323.82101	530.71729	531.27710	194.16086	597.37036	412.81909	329.74783	594.82477	365.80276	328.47284	535.64197	413.09296	330.25809	540.67780	366.26495	325.49319	600.96271	94.93033	265.59436	573.64105	106.95305	177.42514	660.93823	73.00596	204.86562	484.01297	43.99688	296.74258	420.56223	63.39620	239.91782	447.36099	35.58324	198.07587	645.76233	1048.37488	157.11472	450.75085	1021.70312	65.88271	430.44186	759.69952	2.34685	399.79630	687.31195	16.25699	371.85107	613.65826	19.60568	333.20453	716.57086	47.69073	353.96790	550.87366	39.21928	351.46057	540.82898	166.96689	426.05411	500.78119	25.50477	441.18454	459.20905	18.45325	371.70331	472.90646	34.09885	394.14917	434.51932	26.34435	593.40997	197.81511	61.27629	566.91461	183.67230	148.63589	656.92554	203.24397	130.62651	488.12897	69.12691	134.15909	463.97031	82.77371	80.79673	518.63721	85.53749	21.87600
1033	4.12800	641.93317	1052.79333	217.35773	432.47009	1017.61292	301.58875	530.51709	737.46069	363.05106	531.91180	660.26093	341.34009	534.41119	588.84955	334.04736	455.45642	668.33691	326.41837	536.18561	538.89246	323.92163	529.33453	531.22656	194.22514	596.44092	412.94254	329.70215	593.50525	365.71664	328.56686	534.78265	413.05081	330.29208	539.78436	366.17303	325.45544	600.84375	95.01916	265.53741	574.06958	106.97016	177.24440	660.88672	73.08721	204.83644	484.00082	43.96739	296.76312	420.46359	63.30484	239.92732	447.37790	35.74472	197.90080	642.09851	1048.46680	157.19841	447.52271	1021.91516	65.95977	425.50702	760.37421	2.41502	393.82114	687.80438	18.07892	365.53421	613.77521	20.76805	328.40518	717.32556	48.41666	348.43607	551.63318	39.70681	346.26999	541.39520	167.20705	420.33826	500.37930	26.04856	434.74878	458.54663	18.94197	365.33652	473.34006	34.50068	387.25278	434.67523	26.63707	582.22552	194.42650	61.65685	555.12799	180.42021	148.84024	645.79474	198.46927	131.08498	474.29544	67.51583	133.95685	450.45807	81.86305	80.52318	505.33728	83.68714	21.75938
1034	4.13200	638.36395	1052.84875	217.40843	429.03885	1017.25427	301.91785	528.22528	737.31647	363.20868	530.92041	660.61157	342.00409	532.78790	588.78296	334.10706	452.94086	667.49292	326.36646	534.90643	538.78436	323.98071	527.91150	531.15881	194.27280	595.41913	413.04535	329.72626	592.60168	365.83804	328.53928	533.75830	412.97321	330.30579	540.18182	367.44559	326.95856	600.70374	95.09602	265.47501	573.93524	107.00749	177.16420	660.91272	73.18001	204.79121	483.97333	43.91792	296.76260	420.39276	63.19403	239.94179	447.43243	36.03511	197.56516	638.48029	1048.51416	157.25847	443.30341	1021.82666	66.40493	420.47678	760.83649	2.40566	388.79877	688.43317	18.29824	361.29947	615.06616	20.69349	324.18481	717.98932	48.67819	343.13635	552.38098	40.24078	341.33008	541.98059	167.69655	414.66800	499.94250	26.53617	428.32877	457.87521	19.39573	358.67395	473.33716	34.69965	380.09607	434.73422	26.88657	570.22461	190.50299	62.16828	543.35352	177.29204	149.11809	634.09912	193.36497	131.75833	460.27307	66.01010	133.71573	436.70255	80.96675	80.56190	491.97110	81.94249	21.65224
1035	4.13600	634.81537	1052.85876	217.45151	425.61902	1016.84802	302.25409	525.88892	737.22040	363.34988	527.94843	660.09491	341.49078	531.12427	588.72314	334.18256	450.95807	667.13336	326.54172	533.41974	538.68677	324.03629	526.45355	531.10089	194.33276	594.38116	413.14932	329.67059	591.71594	365.94159	328.53616	532.71429	412.92154	330.29153	539.24432	367.36087	326.95837	600.93665	95.29350	265.31210	573.83215	107.03877	177.11647	660.58582	73.17830	204.74174	483.95486	43.87896	296.78482	420.32300	63.06961	239.96446	447.51956	36.43739	197.08954	634.84076	1048.54236	157.32886	439.57822	1021.75525	66.64424	415.76590	761.30188	2.37520	383.90964	688.99902	18.54343	356.20023	615.73639	21.16840	318.89670	718.83966	49.67229	338.12305	553.11377	40.70284	336.37000	542.46246	167.98607	409.03043	499.36484	27.02886	422.04547	457.12781	19.84805	353.03241	474.01996	34.98540	373.48355	434.81674	27.11378	558.79773	187.00027	62.50486	531.49866	174.19168	149.38530	622.29230	188.17130	132.29880	446.27969	64.57801	133.44661	423.23428	80.15312	80.02806	478.51154	80.14281	21.52570
1036	4.14000	631.24603	1052.86707	217.48595	422.15652	1016.49561	302.63232	523.52338	737.09961	363.46140	526.90674	660.43445	342.22086	529.41522	588.65991	334.23672	448.86005	666.70587	326.67368	531.98785	538.63843	324.16000	524.91010	531.06622	194.39345	593.31024	413.33664	329.61179	592.32086	366.96890	328.33319	531.70551	412.90436	330.31836	538.33679	367.36212	326.91800	600.42096	95.28690	265.30179	573.59033	107.09789	177.14864	660.53876	73.29584	204.66769	483.94461	43.86996	296.80228	420.21335	62.98132	239.98488	447.63409	36.93461	196.49455	631.19781	1048.54492	157.38683	435.82556	1021.72363	66.86153	411.04675	761.64679	2.44458	379.05725	689.64099	18.76960	351.26190	616.35956	21.61167	314.28162	719.43091	50.21489	332.94846	553.74280	41.16925	331.52737	542.87836	168.37271	403.47232	498.74786	27.47154	416.07285	456.44342	20.36548	347.14233	474.40823	35.30624	366.64981	434.83453	27.41066	546.64252	183.38907	62.72858	520.25153	171.10503	149.22105	610.77405	183.31497	132.73109	432.07712	63.21284	133.14932	409.10364	79.58759	79.37119	464.95361	78.41785	21.38023
1037	4.14400	627.72278	1052.84436	217.49669	418.79349	1016.11737	302.98804	521.16028	736.99829	363.60687	524.86884	660.38922	342.30759	527.74707	588.61407	334.32037	447.30841	666.81354	327.00342	530.51428	538.60205	324.19879	523.33722	530.99683	194.46390	592.23822	413.46216	329.56940	590.47693	366.36450	328.42026	530.61584	412.88885	330.33316	537.35437	367.31348	326.93777	600.25928	95.41255	265.21906	573.48065	107.16262	177.07788	660.46924	73.40450	204.59505	483.93814	43.86476	296.81873	420.13501	62.87572	239.99213	447.77087	37.50975	195.80084	627.59949	1048.53308	157.41400	432.14087	1021.64813	67.10468	406.53638	762.06012	2.50966	374.26489	689.98724	19.00056	346.79526	617.15558	21.86181	309.83963	720.11871	50.79235	327.89133	554.33484	41.63649	326.76083	543.31921	168.74416	397.92599	498.05405	27.91634	409.49539	455.29227	20.65800	344.76468	477.25464	29.15563	360.02097	434.82791	27.63203	537.88293	181.23465	62.72368	507.74170	168.00883	149.75691	598.78448	178.18460	132.94983	417.90335	61.93040	132.90189	395.33939	78.87076	79.18655	451.39194	76.79797	21.22071
1038	4.14800	624.17389	1052.77795	217.52870	415.31131	1015.78058	303.32532	518.79352	736.90271	363.76157	521.82727	659.84033	341.79068	525.92499	588.54614	334.38837	445.12576	666.31476	327.12036	528.29449	538.48560	324.36133	521.72803	530.91077	194.53728	591.05585	413.57687	329.57840	588.95459	366.35114	328.46350	529.50897	412.81461	330.33627	535.35223	366.22955	325.48596	600.08887	95.51350	265.12714	573.79529	109.09582	178.11522	660.37836	73.49969	204.52844	483.94583	43.85093	296.84000	420.03250	62.76551	240.00836	447.92477	38.14586	195.02905	624.00061	1048.44983	157.46523	428.43204	1021.53973	67.29610	402.03513	762.34094	2.60625	369.70776	690.36487	19.22518	343.18884	618.16064	22.03135	305.48502	720.65247	51.34464	322.88403	554.79840	42.04205	321.97470	543.59497	169.06367	392.46909	497.23914	28.35521	403.33536	454.39563	21.00643	335.18414	474.93607	35.90368	353.33191	434.71158	27.89617	523.65479	176.46255	63.30714	494.94153	165.02505	150.07253	588.06097	174.02336	133.56000	403.65063	60.73904	132.62569	381.70935	78.24311	78.94106	437.66241	75.16997	21.08599
1039	4.15200	620.64545	1052.70203	217.55396	411.88214	1015.40076	303.66037	516.35559	736.73376	363.92487	520.64075	660.13574	342.51749	524.13763	588.43231	334.44321	442.58459	665.53412	327.06125	526.68524	538.38879	324.45236	520.13739	530.83472	194.59531	589.95581	413.67899	329.56583	587.95355	366.42596	328.45547	528.41583	412.74084	330.35110	535.43890	367.26706	326.95779	599.91382	95.63210	265.05713	573.88507	108.15376	177.50806	660.30829	73.62980	204.46109	483.89767	43.82063	296.85513	419.97784	62.65169	240.02078	448.09061	38.82592	194.19975	620.40094	1048.34631	157.52661	425.22318	1021.53448	67.37068	397.16061	762.60449	2.78924	365.53510	690.39728	19.73869	338.56964	618.62976	22.39844	301.49350	721.70862	52.17247	318.05084	555.26819	42.49876	317.20026	543.83746	169.31367	387.53064	496.65842	28.53028	397.11142	453.32834	21.37866	329.34952	475.13449	36.17999	346.77765	434.60422	28.11320	511.95667	173.03844	63.51913	482.81671	162.03049	150.23366	575.61279	168.68015	133.99362	389.32401	59.65025	132.37506	367.96149	77.69000	78.71663	423.92252	73.58611	20.94252
1040	4.15600	617.12689	1052.57324	217.59708	408.42865	1014.99091	304.01273	513.88641	736.55048	364.06683	518.47742	659.98004	342.63022	522.27228	588.31458	334.51736	440.40594	665.08472	327.15570	525.75287	538.31293	324.43115	518.58398	530.74982	194.66483	588.80670	413.80698	329.54037	586.98816	366.55237	328.45691	527.25769	412.63678	330.36713	534.51892	367.21222	326.98416	599.76917	95.72720	264.97986	573.23108	107.76877	177.11656	660.24060	73.72342	204.40628	483.89609	43.78958	296.85703	419.88773	62.52762	240.04181	448.26321	39.53297	193.33360	616.79578	1048.17065	157.59184	420.99484	1021.10352	67.75156	393.31876	762.79034	3.02168	361.68179	690.31464	20.33742	333.83188	618.89465	22.93331	297.26379	722.17749	52.58889	313.21423	555.62451	42.93661	312.61725	544.09021	169.65715	381.89725	495.55032	29.13415	390.91937	452.20236	21.70070	323.63074	475.21124	36.36835	340.12296	434.40085	28.35462	500.08942	169.53955	63.70673	470.51321	159.15338	150.42574	563.57251	163.80151	134.31219	374.96915	58.64149	132.16057	354.14987	77.19630	78.52512	410.07706	72.08847	20.80435
1041	4.16000	613.57782	1052.40259	217.63945	405.12897	1014.91626	304.30920	511.41626	736.40442	364.24472	515.36462	659.39758	342.15347	520.43652	588.19470	334.63849	438.74734	665.07697	327.43875	524.09882	538.15656	324.47559	516.89325	530.64313	194.74149	587.58191	413.86127	329.58582	585.95520	366.62595	328.47647	526.08020	412.50620	330.37790	533.46442	367.09332	326.96994	599.62744	95.84283	264.92380	572.98151	107.74224	177.13348	660.27460	73.90527	204.33809	483.83908	43.74158	296.87958	419.81805	62.40302	240.07382	448.43753	40.25000	192.45123	613.19061	1047.98987	157.64784	417.29272	1020.82458	67.95920	389.44247	762.82758	3.31002	356.20825	691.60461	19.88375	329.50781	619.28094	23.30408	293.20691	722.51208	53.04585	309.20398	556.10126	43.13307	308.04187	544.16779	169.90092	376.59952	494.45312	29.42094	384.10376	450.81546	21.89252	318.10718	475.30975	36.46546	333.57971	434.14697	28.58411	488.19055	166.15807	63.92212	458.01151	155.99634	150.54517	550.85162	158.52599	134.31569	360.62494	57.72826	131.94878	340.29114	76.82291	78.38096	396.14172	70.65899	20.68269
